<?xml version="1.0" standalone="no"?>
<!DOCTYPE svg PUBLIC "-//W3C//DTD SVG 20010904//EN"
 "http://www.w3.org/TR/2001/REC-SVG-20010904/DTD/svg10.dtd">
<svg version="1.0" xmlns="http://www.w3.org/2000/svg"
 width="900.000000pt" height="900.000000pt" viewBox="0 0 900.000000 900.000000"
 preserveAspectRatio="xMidYMid meet">
<metadata>
Created by potrace 1.14, written by Peter Selinger 2001-2017
</metadata>
<g transform="translate(0.000000,900.000000) scale(0.100000,-0.100000)"
fill="#000000" stroke="none">
<path d="M0 8506 l0 -494 25 -16 c14 -9 24 -20 24 -24 -4 -22 4 -32 24 -32 24
0 57 -27 57 -47 0 -5 9 -18 21 -29 24 -22 59 -86 59 -108 0 -35 -74 -45 -123
-16 -24 14 -43 19 -61 14 l-26 -6 0 -1898 0 -1897 93 4 c50 2 119 10 152 18
33 8 105 19 160 25 55 6 114 13 130 16 17 3 64 7 105 10 41 3 107 12 145 20
39 8 87 14 109 14 39 0 126 12 226 32 68 14 190 24 435 37 105 6 206 13 225
16 79 13 208 35 255 44 28 6 88 12 135 14 47 3 106 10 133 17 37 10 61 10 107
1 38 -8 66 -9 77 -3 10 6 61 13 113 16 149 10 307 27 396 42 44 8 95 14 112
14 17 0 68 7 113 16 86 18 98 14 99 -28 0 -10 14 -46 30 -80 17 -34 30 -71 30
-83 0 -22 35 -60 85 -91 41 -25 42 -28 50 -108 6 -52 12 -74 26 -84 11 -7 19
-24 19 -38 0 -13 3 -24 8 -24 4 0 40 -31 80 -68 55 -52 72 -74 72 -95 0 -20 5
-27 20 -27 11 0 20 -4 20 -10 0 -5 7 -10 16 -10 19 0 59 -29 120 -87 30 -28
57 -44 82 -48 20 -4 53 -15 73 -26 20 -10 48 -19 61 -19 14 0 43 -12 64 -27
40 -27 74 -37 179 -52 33 -5 71 -13 85 -19 37 -15 210 -32 252 -26 19 4 45 1
57 -6 17 -9 36 -8 84 4 34 8 82 17 107 20 25 3 61 10 80 16 19 6 53 11 75 11
36 0 58 7 155 54 14 7 31 10 38 8 7 -3 28 5 48 16 19 12 42 21 51 21 9 0 21 6
27 14 9 11 23 12 78 3 55 -8 81 -7 140 6 130 30 176 45 222 72 25 15 53 24 63
21 20 -5 68 47 58 64 -8 12 -55 13 -55 1 0 -7 -58 -18 -150 -26 -49 -5 -117
-23 -151 -40 -15 -8 -45 -15 -66 -15 -28 0 -47 -8 -73 -30 -22 -18 -45 -29
-65 -29 -50 0 -81 -7 -106 -24 -26 -19 -159 -24 -159 -7 0 18 40 50 63 50 47
0 68 12 74 42 6 29 40 60 87 78 19 7 26 17 26 35 0 22 4 25 38 25 32 0 41 5
50 25 6 14 16 25 22 25 5 0 10 9 10 20 0 11 4 28 9 38 5 9 19 39 31 65 12 26
29 54 37 63 8 8 17 33 20 55 4 29 14 45 34 60 35 24 39 64 9 74 -11 3 -20 11
-20 17 0 6 7 7 18 3 41 -17 51 -16 63 6 7 13 18 30 26 37 22 23 27 61 9 81
-17 18 -22 51 -8 51 12 0 39 61 47 103 8 41 32 55 51 30 7 -10 14 -21 14 -25
0 -19 30 -6 30 12 0 26 -27 92 -41 101 -16 9 28 90 52 96 10 3 19 9 19 14 0 5
6 9 13 9 21 1 93 69 81 78 -7 4 -13 16 -15 26 -6 30 -27 30 -40 2 -14 -29 -44
-35 -53 -10 -4 9 -4 32 0 50 6 30 4 34 -22 39 -16 4 -36 9 -45 11 -23 6 -35
-77 -13 -89 22 -12 18 -80 -6 -107 -27 -31 -34 -63 -21 -88 16 -30 14 -40 -10
-47 -13 -4 -27 0 -40 11 -23 21 -38 10 -21 -16 9 -14 9 -19 -1 -23 -7 -2 -11
-18 -9 -40 3 -30 -3 -42 -35 -75 l-38 -40 -36 18 c-19 10 -41 26 -48 34 -8 9
-19 16 -25 16 -7 0 -26 10 -43 23 -17 12 -53 33 -82 47 -51 25 -56 34 -54 97
0 6 -16 18 -36 26 -45 19 -73 48 -75 82 -1 19 -8 28 -26 32 -14 3 -38 17 -53
30 -16 12 -32 23 -35 23 -7 0 -17 17 -47 78 -8 17 -29 44 -45 59 -17 14 -32
41 -36 59 -4 25 -12 34 -25 34 -11 0 -39 18 -62 40 -37 36 -47 40 -86 38 -37
-2 -47 2 -68 26 -13 15 -44 39 -69 52 -25 13 -64 42 -87 63 -23 22 -55 50 -71
62 -26 21 -30 21 -41 6 -17 -23 -30 -21 -59 8 -31 31 -62 32 -115 3 l-41 -22
-22 24 c-20 21 -20 24 -4 35 9 7 35 15 57 19 23 4 54 13 70 21 37 20 139 20
165 0 26 -19 44 -18 74 5 36 27 18 56 -33 52 -28 -3 -37 1 -41 16 -10 31 -62
48 -100 33 -55 -23 -72 -23 -149 -2 l-76 21 -37 -22 -37 -22 6 31 c5 24 1 35
-17 52 -12 11 -30 21 -39 21 -11 0 -18 13 -23 46 -9 62 1 112 28 141 26 28 39
116 38 255 -1 84 0 89 29 120 18 19 27 36 21 42 -4 4 -6 15 -3 22 3 9 -2 14
-15 14 -31 0 -55 29 -49 58 7 35 -1 52 -24 52 -10 0 -19 5 -19 10 0 6 -5 10
-12 10 -6 0 -41 28 -77 63 -51 48 -66 58 -69 45 -2 -10 -8 -18 -13 -18 -6 0
-7 -20 -3 -50 4 -33 3 -55 -5 -64 -16 -19 -41 -9 -41 15 0 10 -4 19 -10 19 -5
0 -10 8 -10 19 0 10 -18 35 -41 56 -22 20 -38 42 -36 49 3 8 31 16 66 20 70 8
91 28 91 87 0 28 -6 41 -25 53 -13 9 -30 16 -38 16 -7 0 -30 9 -52 20 -25 13
-59 20 -96 20 -43 0 -60 5 -74 20 -23 25 -40 25 -72 0 -14 -11 -39 -20 -56
-20 -36 0 -88 -15 -138 -41 -20 -11 -48 -19 -61 -19 -13 0 -42 -13 -64 -30
-21 -16 -45 -30 -51 -30 -7 0 -13 -4 -13 -9 0 -5 -6 -16 -13 -23 -14 -13 -39
-307 -27 -318 12 -11 32 -84 37 -135 6 -60 9 -64 28 -38 23 31 66 6 97 -57 15
-29 33 -58 40 -62 7 -5 34 -6 59 -3 35 4 49 1 59 -10 43 -51 120 -59 170 -16
26 22 43 28 65 25 36 -5 138 45 143 70 4 20 -21 21 -37 2 -12 -15 -108 -33
-118 -22 -4 3 2 21 12 40 18 33 18 34 -3 68 -27 43 -27 57 -4 74 13 10 14 15
5 25 -10 10 -16 9 -29 -2 -11 -9 -42 -14 -88 -14 -50 0 -78 -5 -95 -17 -29
-20 -61 -8 -61 22 0 27 -34 26 -59 -1 -11 -12 -31 -21 -46 -21 -31 0 -65 36
-58 62 6 23 23 27 23 5 0 -22 41 -28 79 -12 33 14 34 15 13 26 -12 6 -32 9
-44 6 -47 -11 -71 37 -38 75 11 13 20 36 20 51 0 22 10 35 44 59 37 25 55 30
101 30 32 0 54 4 50 9 -3 5 -1 12 5 16 6 4 10 -5 10 -19 0 -15 -6 -26 -13 -26
-17 0 -41 -43 -35 -61 3 -8 -14 -30 -36 -51 l-41 -36 23 -20 c12 -11 22 -26
22 -33 1 -8 8 -1 16 15 13 22 21 27 43 24 24 -4 27 -1 23 19 -3 17 0 23 12 23
20 0 96 58 96 73 0 5 -7 15 -16 22 -11 8 -14 19 -9 34 5 18 12 21 32 16 14 -3
30 -2 36 3 20 16 51 22 66 13 12 -8 12 -11 0 -23 -8 -8 -28 -20 -46 -27 -50
-20 -55 -33 -29 -63 15 -19 38 -30 72 -35 42 -8 49 -12 48 -31 0 -14 5 -22 15
-22 13 -1 13 -3 -2 -14 -17 -13 -17 -16 -3 -45 15 -28 15 -31 -6 -45 -12 -9
-28 -16 -35 -16 -7 0 -13 -4 -13 -8 0 -17 26 -32 57 -32 17 0 43 -5 57 -11 36
-17 60 4 52 46 -5 24 -1 36 14 50 11 10 20 29 20 42 0 16 6 23 20 23 11 0 20
-6 20 -14 0 -8 9 -31 21 -50 20 -34 20 -38 6 -83 -8 -27 -18 -60 -21 -74 -4
-18 -18 -32 -41 -43 -41 -20 -55 -42 -48 -77 4 -20 -2 -32 -26 -52 -17 -14
-31 -31 -31 -37 0 -14 51 -59 68 -60 6 0 12 -7 12 -15 0 -8 4 -15 8 -15 18 0
39 -65 30 -89 -6 -19 -11 -22 -20 -13 -15 15 -38 16 -38 2 0 -5 6 -10 14 -10
10 0 14 -19 15 -76 1 -42 4 -80 7 -85 3 -5 0 -27 -6 -50 -11 -39 -10 -43 17
-71 32 -34 75 -59 116 -67 42 -9 35 -25 -14 -33 -30 -5 -45 -4 -51 5 -5 8 -8
7 -8 -5 0 -9 4 -18 9 -20 21 -7 22 -54 2 -77 -12 -13 -21 -28 -21 -33 0 -4 -6
-8 -14 -8 -7 0 -19 -7 -26 -15 -7 -9 -29 -15 -54 -15 -45 0 -44 2 -80 -110
-10 -30 -24 -62 -32 -71 -10 -11 -15 -49 -16 -135 -1 -103 -4 -122 -21 -141
-19 -22 -22 -22 -39 -6 -10 9 -18 22 -18 30 0 7 -4 13 -9 13 -4 0 -23 14 -40
31 -20 19 -39 28 -48 25 -35 -14 -55 33 -33 75 8 15 15 17 28 10 14 -7 21 -5
30 10 7 11 8 19 2 19 -16 0 -12 77 4 83 8 3 16 15 18 27 4 28 21 27 30 -2 3
-13 6 -19 7 -15 1 5 8 1 17 -7 23 -24 35 -19 22 9 -6 14 -15 25 -20 25 -4 0
-8 12 -8 26 0 29 25 60 35 44 8 -13 52 -13 60 0 4 6 2 16 -3 23 -5 7 -11 20
-13 30 -3 15 -13 10 -52 -27 l-48 -46 -28 33 c-17 19 -25 35 -19 38 6 4 4 16
-7 32 -10 16 -14 34 -10 47 5 15 -2 28 -24 50 -16 17 -34 30 -40 30 -6 0 -11
9 -11 20 0 11 -4 20 -10 20 -5 0 -10 9 -10 20 0 11 5 20 10 20 6 0 10 -5 10
-10 0 -6 11 -3 25 6 57 37 7 121 -66 109 -33 -6 -37 -4 -52 27 -14 29 -15 34
-2 44 22 17 18 27 -16 47 -41 23 -88 22 -114 -3 l-21 -20 -40 29 c-51 38 -64
28 -64 -51 0 -45 -4 -60 -16 -65 -49 -18 -99 165 -105 382 -1 58 19 274 28
288 13 22 30 135 22 149 -5 7 -6 51 -2 98 3 47 0 160 -6 250 -11 141 -10 170
2 199 9 22 12 44 7 61 -5 17 -2 41 7 66 8 21 23 68 33 102 22 72 30 85 80 118
19 13 47 34 62 46 23 18 30 19 43 8 26 -22 69 4 86 53 11 30 25 47 50 59 19
10 28 18 22 18 -25 0 -13 20 27 45 22 14 40 32 40 40 0 19 39 45 58 38 11 -5
14 -2 9 10 -4 12 3 19 30 28 33 10 67 9 164 -7 42 -7 62 12 63 59 1 28 5 32
30 35 16 2 39 -1 50 -6 52 -26 95 -33 117 -21 21 11 103 17 239 18 106 0 232
18 281 40 40 18 55 19 124 12 90 -10 105 -7 105 23 0 11 4 26 8 33 11 17 97
19 117 3 15 -13 126 -17 210 -8 22 2 32 -2 40 -19 13 -25 57 -63 73 -63 6 0
40 -28 76 -63 48 -48 66 -73 71 -101 4 -20 15 -42 24 -49 29 -20 51 -60 51
-90 0 -30 14 -62 37 -85 7 -7 13 -34 13 -59 0 -25 6 -66 14 -92 8 -25 22 -77
31 -116 10 -47 24 -77 40 -93 14 -13 25 -28 25 -33 0 -6 11 -24 25 -40 13 -16
27 -46 31 -67 4 -20 13 -50 21 -66 9 -16 16 -52 18 -80 1 -28 5 -58 9 -66 14
-35 75 -245 90 -313 4 -15 25 -46 48 -69 l41 -41 -10 -66 c-11 -71 -5 -102 28
-137 19 -21 19 -21 -11 -52 -23 -24 -30 -41 -30 -71 0 -38 1 -38 42 -44 24 -3
44 -11 46 -16 9 -26 19 -7 20 37 1 26 4 76 7 111 6 50 4 67 -7 75 -8 6 -22 23
-32 38 -18 28 -17 30 29 63 21 15 22 11 -19 77 -8 13 -7 26 6 50 9 18 24 50
32 70 8 20 24 41 35 48 12 6 30 29 41 50 23 45 44 50 83 20 33 -26 41 -25 56
6 9 22 8 30 -10 55 -23 33 -19 59 9 59 25 0 37 -15 56 -70 31 -93 47 -179 52
-295 5 -103 3 -132 -15 -202 -24 -92 -26 -143 -10 -244 9 -57 8 -83 -6 -148
-15 -69 -23 -85 -64 -129 -25 -27 -57 -55 -70 -62 -21 -11 -26 -9 -45 11 -12
13 -25 31 -28 41 -4 9 -24 19 -48 23 -34 6 -44 4 -55 -12 -21 -26 -19 -30 20
-43 48 -16 69 -58 70 -137 0 -49 3 -63 16 -66 14 -4 17 -21 17 -108 0 -244 4
-293 23 -325 11 -18 18 -47 17 -70 -2 -66 4 -227 9 -241 7 -18 88 -58 133 -67
19 -3 69 -19 110 -35 69 -27 94 -34 200 -61 19 -5 67 -13 105 -19 39 -5 147
-22 240 -37 94 -15 253 -33 355 -39 182 -12 344 -36 381 -56 27 -14 145 -24
152 -12 3 5 2 52 -3 104 -5 52 -12 241 -16 421 -6 295 -5 330 10 353 12 19 25
25 51 25 19 0 35 -3 35 -7 1 -5 2 -118 5 -253 2 -174 8 -267 20 -320 8 -41 19
-130 22 -198 5 -98 9 -125 22 -131 9 -5 53 -12 99 -15 79 -7 177 -33 232 -61
37 -19 125 -78 207 -137 40 -29 123 -80 185 -112 62 -32 137 -72 167 -87 30
-16 64 -29 77 -29 23 0 24 3 24 81 0 63 -4 87 -19 107 -10 15 -26 55 -35 89
-20 80 -63 166 -79 159 -7 -3 -20 -9 -29 -12 -10 -4 -18 -14 -18 -24 0 -26
-11 -51 -20 -45 -4 3 -11 -7 -14 -21 -9 -36 -31 -24 -31 17 0 28 -4 35 -22 37
-14 2 -32 -6 -47 -21 -13 -13 -32 -27 -41 -31 -14 -5 -16 0 -14 32 2 21 -5 55
-14 75 -10 20 -22 74 -28 119 -20 167 -43 351 -61 483 -6 44 -19 102 -29 130
-13 33 -15 53 -9 59 6 6 64 11 130 12 161 1 165 4 156 129 -9 111 -30 242 -58
358 -25 102 -26 100 61 118 51 10 112 8 189 -7 l32 -6 0 564 c0 544 -1 566
-20 606 -11 22 -20 49 -20 58 0 22 -49 67 -65 60 -23 -8 -80 75 -91 134 -6 30
-22 50 -39 50 -7 0 -19 15 -28 33 -23 51 -65 196 -76 266 -6 35 -18 72 -27 82
-13 15 -15 30 -11 70 4 29 2 60 -4 71 -15 28 -46 155 -54 219 -5 40 -3 58 7
66 31 26 304 61 323 41 4 -4 11 -37 16 -75 4 -37 13 -86 18 -108 6 -22 11 -58
11 -80 0 -44 14 -65 42 -65 16 0 18 10 18 90 0 53 -4 90 -10 90 -5 0 -10 18
-10 40 0 22 5 40 10 40 6 0 10 104 10 293 l0 292 -40 13 c-22 6 -46 12 -54 12
-20 0 -60 51 -82 104 -15 35 -24 46 -41 46 -28 0 -29 -8 -1 -64 20 -43 21 -46
4 -71 -9 -14 -28 -30 -42 -35 -39 -15 -155 -12 -207 6 l-46 15 -4 87 c-5 89
-24 201 -52 307 -9 33 -21 78 -26 100 -6 22 -15 54 -20 71 -5 17 -9 41 -9 54
0 13 -10 34 -22 47 l-21 23 36 15 c31 13 75 14 274 10 256 -6 283 -11 283 -59
0 -13 7 -29 15 -36 8 -7 15 -22 15 -34 0 -22 17 -46 32 -46 4 0 8 56 8 125 l0
125 -4500 0 -4500 0 0 -494z m5825 403 l40 -11 -30 -24 c-29 -23 -29 -24 -10
-38 40 -30 170 -11 144 21 -6 7 -17 13 -24 13 -16 0 -38 27 -28 33 5 3 152 7
326 8 328 3 366 -1 316 -35 -19 -11 -43 -14 -104 -10 -111 7 -384 7 -412 -1
-13 -3 -23 -9 -23 -14 0 -16 72 -20 308 -17 188 2 234 0 244 -11 25 -31 -8
-37 -200 -40 -103 -2 -194 -3 -202 -3 -8 -1 -85 1 -170 3 -85 2 -163 0 -172
-5 -22 -11 -24 -38 -3 -38 12 0 14 -10 10 -52 -23 -228 -21 -269 8 -251 5 3 7
-3 5 -13 -2 -15 -11 -18 -35 -16 -26 3 -39 -4 -72 -37 -25 -25 -38 -46 -35
-56 11 -27 33 -16 36 18 3 31 4 32 43 29 53 -5 60 -13 34 -46 -14 -18 -19 -34
-15 -51 9 -36 -28 -42 -101 -17 -63 22 -68 34 -34 82 12 17 16 39 14 68 -2 35
0 42 15 42 16 0 18 8 15 63 -1 34 -5 86 -9 116 -5 39 -3 55 7 61 10 7 6 12
-14 19 -16 6 -35 11 -43 11 -8 0 -14 3 -14 8 0 10 58 42 78 43 14 0 14 2 2 6
-8 3 -30 12 -49 19 l-34 14 21 23 c32 34 27 44 -28 56 -72 15 -136 14 -172 -5
-26 -13 -42 -14 -114 -4 -185 24 -138 39 111 34 99 -2 205 0 235 5 79 12 90
12 135 0z m-2750 -9 c17 0 17 -2 5 -10 -19 -12 -87 -13 -95 -1 -7 12 23 20 50
15 11 -2 29 -4 40 -4z m309 0 c15 0 16 -3 6 -15 -15 -18 -55 -19 -101 -3 l-34
13 35 6 c19 4 44 5 55 3 11 -2 28 -4 39 -4z m583 -4 c12 -12 -20 -26 -58 -26
-20 0 -52 6 -70 14 l-34 14 30 5 c39 6 123 2 132 -7z m693 -13 c-15 -11 -32
-13 -58 -8 -69 14 -117 14 -162 2 -57 -15 -120 -11 -120 8 0 12 30 15 163 17
89 2 170 1 180 -1 16 -3 16 -5 -3 -18z m454 21 l48 -7 -39 -14 c-64 -25 -89
-26 -128 -7 -33 15 -35 19 -19 25 25 10 79 11 138 3z m-2382 -20 c-25 -17 -83
-15 -90 4 -3 9 12 12 54 12 56 0 57 -1 36 -16z m148 6 c0 -7 -19 -10 -45 -9
-68 4 -78 19 -12 19 33 0 57 -4 57 -10z m740 5 c0 -13 -45 -26 -71 -20 -46 10
-34 25 21 25 28 0 50 -2 50 -5z m516 -10 c-11 -8 -27 -15 -36 -15 -9 0 -25 7
-36 15 -17 13 -15 14 36 14 51 0 53 -1 36 -14z m652 8 c-10 -2 -26 -2 -35 0
-10 3 -2 5 17 5 19 0 27 -2 18 -5z m70 -4 c-12 -7 -24 -7 -35 0 -15 9 -12 10
17 10 29 0 32 -1 18 -10z m595 -59 c20 -8 36 -19 34 -24 -7 -20 -70 -28 -109
-15 -39 12 -51 29 -22 29 8 0 22 7 31 15 8 9 18 15 22 13 3 -2 23 -10 44 -18z
m-653 0 c0 -5 6 -7 13 -4 7 2 30 -2 51 -9 l39 -13 -72 -13 c-58 -10 -78 -11
-102 -1 l-30 13 28 18 c31 19 73 25 73 9z m308 -6 c35 -15 36 -16 18 -30 -34
-24 -82 -27 -136 -8 l-51 18 33 17 c43 22 89 23 136 3z m-1108 -14 c0 -17 -90
-28 -128 -17 l-36 12 37 10 c40 11 127 8 127 -5z m434 0 c15 -15 -4 -30 -37
-30 -18 0 -52 6 -77 14 l-45 14 35 10 c37 12 109 7 124 -8z m239 1 c17 -17
-32 -29 -91 -23 -33 3 -51 9 -49 16 8 24 117 30 140 7z m-2323 0 c0 -6 -4 -12
-9 -15 -13 -8 -42 4 -35 15 7 12 44 12 44 0z m680 -1 c11 -7 7 -10 -17 -10
-18 0 -33 5 -33 10 0 13 30 13 50 0z m604 1 c8 -13 -67 -24 -104 -16 -17 4
-28 11 -24 16 7 12 121 12 128 0z m505 0 c10 -6 5 -11 -18 -16 -39 -8 -104 2
-96 16 8 11 95 12 114 0z m1161 -1 c0 -5 -16 -10 -36 -10 -21 0 -33 4 -29 10
3 6 19 10 36 10 16 0 29 -4 29 -10z m315 0 c3 -5 1 -10 -4 -10 -6 0 -11 5 -11
10 0 6 2 10 4 10 3 0 8 -4 11 -10z m-3072 -7 c-7 -2 -19 -2 -25 0 -7 3 -2 5
12 5 14 0 19 -2 13 -5z m167 -3 c12 -8 11 -10 -7 -10 -13 0 -23 5 -23 10 0 13
11 13 30 0z m1733 -58 c16 -18 15 -20 -11 -44 -31 -27 -47 -26 -62 3 -25 46
38 80 73 41z m652 6 c28 -12 33 -35 10 -44 -21 -9 -33 -66 -34 -166 0 -73 -4
-91 -20 -107 -17 -17 -21 -18 -32 -5 -6 8 -22 14 -35 14 -13 0 -24 5 -24 10 0
6 6 10 13 10 20 0 45 32 42 52 -2 10 0 17 3 17 18 -3 23 2 15 14 -16 19 -24
108 -12 123 8 10 5 19 -15 37 -24 22 -24 25 -8 40 19 20 60 22 97 5z m1161 -4
c68 -14 78 -14 106 1 29 14 34 14 56 -1 l25 -17 -23 -17 c-22 -17 -22 -18 -5
-44 17 -26 17 -28 -1 -68 -20 -44 -23 -146 -6 -157 5 -3 13 -39 17 -79 4 -39
11 -75 16 -78 16 -9 11 -111 -7 -128 -20 -20 -27 -20 -46 2 -20 23 -52 195
-49 267 1 44 -16 95 -32 95 -5 0 -3 8 5 18 32 38 55 131 38 161 -21 40 -85 16
-95 -35 -6 -37 -16 -42 -35 -19 -17 20 -20 19 -57 -15 -18 -17 -34 -30 -37
-30 -2 0 -6 28 -8 63 -2 52 0 65 17 79 25 21 29 22 121 2z m303 2 c8 -9 11
-103 11 -307 0 -162 0 -303 1 -314 3 -71 -8 -376 -14 -382 -4 -4 -20 5 -34 20
l-27 26 23 25 c20 21 21 27 9 45 -7 12 -21 21 -30 21 -17 0 -16 2 1 19 17 17
20 34 20 131 0 73 -5 122 -14 144 -21 49 -26 291 -7 328 7 16 13 57 13 95 -2
118 0 137 11 150 13 17 23 16 37 -1z m-2605 -15 c14 -16 16 -26 9 -48 -8 -23
-16 -29 -46 -31 -27 -2 -37 1 -37 11 0 8 -8 25 -19 38 -17 22 -17 24 -2 36 25
19 75 16 95 -6z m832 4 c10 -8 14 -15 7 -15 -6 0 -15 -9 -18 -20 -9 -28 -28
-25 -42 7 -10 21 -10 28 0 35 18 11 31 10 53 -7z m672 4 c18 -6 30 -14 27 -19
-9 -15 -74 -21 -97 -9 -21 11 -21 12 -3 25 23 17 33 17 73 3z m612 0 c10 -7
11 -12 4 -15 -40 -17 -45 -29 -46 -109 0 -44 4 -108 9 -143 l9 -62 -38 -11
c-28 -7 -38 -15 -38 -29 0 -23 18 -27 26 -5 9 24 42 -4 60 -52 20 -51 13 -63
-35 -63 -42 0 -61 14 -61 47 0 16 -7 24 -25 29 -13 3 -30 13 -37 21 -10 12 -9
17 5 28 9 7 17 19 17 28 0 9 5 19 11 23 8 5 8 9 -1 14 -10 6 -10 18 -1 53 14
56 14 104 1 112 -14 9 -12 73 3 78 9 3 7 10 -7 25 -24 28 -17 31 109 40 11 1
27 -3 35 -9z m-3724 -10 c3 -6 0 -15 -7 -20 -14 -8 -32 9 -23 23 7 11 22 10
30 -3z m703 2 c10 -7 5 -11 -17 -16 -34 -7 -56 0 -47 16 8 11 46 12 64 0z
m305 0 c7 -11 -22 -23 -35 -15 -5 3 -7 10 -4 15 8 12 32 12 39 0z m273 -8 c7
-19 -62 -27 -87 -10 -16 11 -18 16 -8 20 23 10 91 3 95 -10z m491 5 c-6 -16
-55 -34 -65 -24 -10 10 26 36 50 36 10 0 17 -5 15 -12z m521 -12 c-2 -2 -15
-7 -29 -10 l-25 -7 25 20 c14 11 27 15 29 10 1 -6 1 -12 0 -13z m618 8 c-3 -3
-12 -4 -19 -1 -8 3 -5 6 6 6 11 1 17 -2 13 -5z m201 -95 c-3 -28 -2 -68 3 -87
4 -20 5 -41 1 -46 -3 -6 -5 -21 -3 -33 1 -13 -2 -23 -8 -23 -6 0 -11 -7 -11
-15 0 -8 4 -15 10 -15 5 0 16 -13 24 -29 20 -37 8 -48 -54 -53 -39 -3 -45 -6
-44 -25 1 -35 -10 -28 -23 14 -8 26 -8 40 -1 44 6 4 7 12 3 18 -4 7 -1 18 5
26 6 8 9 23 5 33 -13 42 -8 111 10 128 12 12 15 26 11 49 -7 36 11 59 38 49 9
-3 16 -1 16 5 0 6 5 11 11 11 8 0 10 -17 7 -51z m-702 -105 c-3 -9 -6 -31 -6
-50 0 -19 -4 -34 -10 -34 -5 0 -10 18 -10 40 0 22 -4 40 -10 40 -5 0 -10 5
-10 10 0 6 12 10 26 10 20 0 25 -4 20 -16z m1488 -47 l1 -54 -29 8 c-16 5 -31
10 -33 13 -9 8 47 99 56 90 2 -2 4 -28 5 -57z m-564 31 c0 -16 -3 -19 -11 -11
-6 6 -8 16 -5 22 11 17 16 13 16 -11z m-2104 -45 c-1 -46 -5 -59 -19 -61 -29
-6 -32 28 -6 74 13 24 24 44 25 44 1 0 1 -26 0 -57z m518 15 c4 -24 3 -38 -4
-38 -5 0 -10 19 -10 42 0 49 5 47 14 -4z m471 18 c17 -15 26 -30 22 -39 -3 -9
-1 -17 5 -19 35 -12 -46 -78 -95 -78 -26 0 -20 25 8 38 28 13 31 28 14 66 -12
25 -7 56 9 56 5 0 21 -11 37 -24z m679 -2 c8 -31 -8 -54 -25 -37 -11 11 -2 63
11 63 4 0 11 -12 14 -26z m-1890 -37 c-3 -9 -14 -17 -24 -17 -21 0 -31 30 -18
55 10 16 11 16 30 -2 11 -12 16 -26 12 -36z m1362 -14 c-11 -11 -19 6 -11 24
8 17 8 17 12 0 3 -10 2 -21 -1 -24z m-820 -38 c7 -41 8 -40 -28 -49 -25 -6
-28 -4 -28 19 0 14 5 25 10 25 6 0 10 9 10 20 0 35 29 22 36 -15z m344 25 c0
-5 -4 -10 -10 -10 -5 0 -10 5 -10 10 0 6 5 10 10 10 6 0 10 -4 10 -10z m1005
-22 c1 -2 5 -12 8 -23 5 -16 -3 -25 -44 -45 l-51 -25 -20 25 -20 24 22 18 c12
10 31 18 41 18 10 0 19 4 19 9 0 8 38 7 45 -1z m-502 -33 c3 -19 2 -49 -3 -67
-12 -40 10 -68 54 -68 17 0 37 -4 44 -9 18 -11 20 -77 4 -93 -15 -15 -195 -30
-200 -17 -2 5 -17 16 -33 24 -42 22 -36 42 21 67 29 12 49 27 46 34 -2 6 1 17
7 23 8 8 8 11 0 11 -18 0 -25 37 -11 59 7 12 21 21 31 21 13 0 17 5 13 16 -3
9 -4 20 0 25 11 18 22 8 27 -26z m319 3 c6 -37 -1 -52 -33 -70 -17 -10 -28
-22 -25 -27 10 -16 -31 -23 -53 -9 -12 7 -21 15 -21 18 0 9 64 75 90 93 32 22
37 22 42 -5z m-1692 -18 c0 -4 -9 -6 -21 -3 -15 4 -17 8 -8 14 14 8 29 3 29
-11z m759 -2 c4 -13 11 -40 15 -60 6 -31 3 -39 -15 -48 -29 -16 -69 -4 -69 20
0 10 5 22 10 25 6 3 10 19 10 34 0 47 34 68 49 29z m164 6 c10 -10 -15 -53
-32 -56 -24 -5 -41 22 -27 44 10 17 46 25 59 12z m231 -97 c-4 -12 -18 -17
-49 -17 -40 0 -42 1 -37 25 2 14 14 32 25 40 20 14 24 13 45 -8 14 -15 20 -29
16 -40z m1703 44 c11 -17 8 -24 -16 -49 -21 -21 -26 -33 -20 -44 6 -11 5 -19
-1 -23 -5 -3 -10 -19 -10 -35 0 -16 -9 -46 -20 -65 -11 -20 -25 -60 -31 -88
-7 -29 -18 -64 -25 -79 -8 -15 -14 -37 -14 -48 0 -18 -2 -19 -12 -8 -19 19
-15 252 4 298 8 19 18 50 21 68 11 55 43 92 80 92 21 0 36 -7 44 -19z m-2869
-27 c2 -13 -4 -24 -14 -28 -23 -9 -37 7 -29 34 8 27 39 23 43 -6z m209 -19 c0
-8 -6 -15 -13 -15 -8 0 -11 6 -8 15 4 8 9 15 13 15 4 0 8 -7 8 -15z m753 5 c0
-5 7 -10 15 -10 8 0 15 -7 15 -15 0 -18 -21 -20 -38 -3 -15 15 -16 38 -2 38 6
0 10 -4 10 -10z m1590 0 c0 -12 -28 -25 -36 -17 -9 9 6 27 22 27 8 0 14 -5 14
-10z m-2012 -23 c3 -13 -3 -17 -27 -17 -20 0 -31 5 -31 14 0 29 53 32 58 3z
m527 -67 c-3 -5 -12 -10 -18 -10 -7 0 -6 4 3 10 19 12 23 12 15 0z m-120 -23
c18 -9 17 -11 -12 -25 -28 -13 -38 -13 -73 -2 -31 10 -46 11 -65 2 -32 -15
-68 -16 -60 -2 3 6 13 10 22 10 8 0 26 9 40 20 22 17 35 19 77 14 28 -4 60
-11 71 -17z m1668 -10 c15 -11 16 -23 9 -107 -5 -52 -7 -147 -6 -210 4 -135 4
-131 2 -192 -1 -57 -20 -63 -61 -20 l-27 28 2 238 c3 236 3 238 27 257 27 22
32 23 54 6z m-4133 -16 c0 -14 -18 -23 -30 -16 -6 4 -8 11 -5 16 8 12 35 12
35 0z m2110 -44 c0 -7 -29 -26 -65 -42 -79 -35 -85 -55 -17 -55 35 0 52 5 65
20 17 20 47 27 47 12 0 -17 -27 -40 -73 -63 -47 -23 -50 -23 -79 -6 -16 9 -38
17 -48 17 -22 0 -32 13 -25 32 8 20 145 97 173 98 12 0 22 -6 22 -13z m550
-17 c86 -34 98 -44 81 -63 -10 -12 -18 -12 -59 0 -93 30 -109 33 -153 33 -41
0 -79 13 -69 23 13 12 78 35 101 36 15 1 60 -12 99 -29z m205 0 c49 -17 49
-18 24 -28 -39 -16 -93 -1 -97 26 -4 26 6 27 73 2z m680 1 c10 -17 -34 -34
-51 -21 -7 7 -11 16 -8 21 7 12 51 11 59 0z m-3544 -43 c16 -32 20 -51 14 -82
-3 -23 -6 -50 -5 -61 14 -173 4 -765 -12 -765 -6 0 -8 16 -5 38 2 20 1 62 -4
92 -6 48 -12 183 -25 640 -2 89 4 180 12 180 2 0 13 -19 25 -42z m3639 -33
c10 -12 10 -19 2 -27 -16 -16 -66 2 -70 25 -4 22 50 24 68 2z m-1360 -5 c0 -5
-9 -10 -20 -10 -11 0 -20 5 -20 10 0 6 9 10 20 10 11 0 20 -4 20 -10z m-1120
-10 c0 -5 -4 -10 -10 -10 -5 0 -10 5 -10 10 0 6 5 10 10 10 6 0 10 -4 10 -10z
m1445 -15 c27 -17 28 -20 10 -23 -11 -1 -45 4 -75 12 -50 13 -59 13 -105 -5
-61 -23 -60 -23 -80 -2 -29 28 2 38 116 38 88 0 110 -3 134 -20z m-1311 -1 c9
-3 13 -10 10 -15 -8 -14 -21 -11 -28 6 -6 17 -4 18 18 9z m584 -6 c-5 -15 -58
-24 -58 -10 0 15 12 22 38 22 14 0 22 -5 20 -12z m-703 -50 c22 -26 22 -33 19
-195 -4 -206 -13 -289 -30 -304 -11 -9 -14 -7 -14 12 -1 13 -6 98 -12 189 -6
91 -11 192 -11 225 1 67 13 138 21 115 3 -8 15 -27 27 -42z m2323 40 c-5 -15
-58 -24 -58 -10 0 15 12 22 38 22 14 0 22 -5 20 -12z m237 -23 c0 -22 -22 -30
-44 -16 -21 14 -5 43 21 39 15 -2 23 -10 23 -23z m-730 -5 c17 -7 15 -9 -12
-9 -18 -1 -33 4 -33 9 0 12 17 12 45 0z m579 -26 c18 -7 21 -30 5 -39 -15 -10
-99 17 -99 32 0 14 65 18 94 7z m2539 -45 c45 -12 123 -27 172 -34 153 -22
205 -41 205 -75 0 -24 40 -39 92 -33 43 5 88 -8 88 -25 0 -5 -8 -17 -18 -28
-44 -47 -50 -65 -45 -118 5 -45 3 -54 -12 -60 -10 -4 -23 -2 -28 3 -7 7 -20 4
-39 -7 -24 -14 -30 -15 -38 -3 -14 23 5 55 38 65 33 9 49 33 32 50 -7 7 -20 6
-43 -2 -49 -18 -72 -15 -106 14 -17 14 -35 23 -41 19 -12 -8 -12 -108 1 -230
10 -99 27 -372 34 -535 2 -58 7 -157 10 -220 6 -100 5 -118 -9 -129 -14 -12
-19 -11 -34 3 -47 42 -84 0 -75 -87 6 -68 -10 -92 -56 -82 -25 5 -36 15 -48
43 -8 19 -12 43 -10 53 6 21 -16 32 -32 16 -14 -14 -27 2 -38 43 -3 14 -9 27
-13 30 -16 11 -57 88 -67 125 -6 22 -14 68 -18 103 -4 34 -10 62 -14 62 -12 0
-13 201 0 216 6 8 8 21 4 31 -4 10 -9 27 -10 37 -1 11 -7 22 -13 24 -16 5 -15
79 0 84 15 5 16 154 1 169 -7 7 -9 26 -6 46 3 19 1 72 -5 116 -7 45 -14 117
-16 161 -4 71 -3 79 15 83 14 4 18 11 13 25 -10 32 4 68 27 68 11 0 57 -9 102
-21z m-3113 -71 c0 -6 -7 -7 -16 -4 -9 3 -18 6 -20 6 -3 0 -3 4 1 10 7 11 35
2 35 -12z m-1515 -10 c14 -6 25 -14 25 -17 0 -4 -20 -14 -44 -23 -43 -16 -44
-16 -56 7 -7 13 -9 28 -6 34 9 14 48 14 81 -1z m2849 -69 c1 -25 -4 -44 -11
-46 -10 -3 -13 11 -13 53 0 44 3 55 12 46 6 -6 12 -30 12 -53z m208 19 c27
-31 38 -62 38 -109 0 -38 11 -66 38 -100 7 -9 12 -22 10 -29 -2 -7 3 -15 11
-18 11 -4 12 2 6 24 -4 16 -7 34 -6 39 1 6 5 40 9 77 8 71 21 95 46 85 20 -8
21 -53 1 -100 -14 -33 -13 -37 3 -46 17 -10 18 -19 13 -277 -1 -58 -24 -99
-41 -74 -5 8 -17 35 -26 60 -9 25 -20 53 -25 62 -5 10 -9 25 -9 33 0 9 -13 21
-30 26 -37 14 -46 43 -60 209 -6 68 -11 126 -12 129 -4 36 8 39 34 9z m-2848
-42 c-5 -12 -54 -29 -62 -21 -2 1 4 10 13 19 20 20 57 22 49 2z m2636 -44 c0
-5 -9 -17 -20 -27 -12 -10 -20 -31 -20 -49 -1 -29 -1 -30 -15 -12 -20 27 -19
40 8 70 21 25 47 34 47 18z m140 -41 c27 -26 28 -30 14 -56 -8 -15 -14 -32
-14 -37 0 -18 -27 -37 -51 -35 -34 2 -40 16 -23 50 9 16 13 35 10 43 -6 17 13
64 26 64 5 0 22 -13 38 -29z m2158 -247 l2 -39 -19 35 c-19 36 -18 54 2 47 7
-2 13 -21 15 -43z m-2280 24 c-7 -19 -38 -22 -38 -4 0 10 9 16 21 16 12 0 19
-5 17 -12z m2206 -34 c-5 -29 -3 -32 28 -43 33 -12 33 -12 13 -29 -27 -22 -48
-95 -40 -134 7 -30 7 -31 -13 -12 -25 24 -37 102 -21 138 10 21 9 29 -3 43 -9
10 -13 25 -11 33 3 8 6 20 8 27 2 6 13 11 25 10 17 -1 19 -6 14 -33z m-2135
-93 c9 -6 10 -11 2 -15 -13 -8 -31 1 -31 15 0 11 11 11 29 0z m2251 -31 c0 -5
-4 -10 -10 -10 -5 0 -10 5 -10 10 0 6 5 10 10 10 6 0 10 -4 10 -10z m-10 -85
c0 -7 -9 -15 -20 -18 -21 -5 -24 1 -14 27 7 17 34 10 34 -9z m-61 -187 c-1
-24 4 -55 9 -69 11 -27 0 -49 -23 -49 -30 0 -46 102 -23 140 21 34 37 24 37
-22z m111 22 c0 -24 -26 -38 -42 -22 -16 16 -2 42 22 42 13 0 20 -7 20 -20z
m-20 -105 c0 -8 -7 -15 -15 -15 -16 0 -20 12 -8 23 11 12 23 8 23 -8z m-1 -95
c14 0 21 -6 21 -20 0 -15 -7 -20 -25 -20 -18 0 -28 -7 -35 -25 -21 -56 -70
-35 -70 31 0 26 5 34 28 42 15 5 34 6 44 1 9 -5 26 -9 37 -9z m-289 -336 c0
-15 -6 -24 -15 -24 -22 0 -29 26 -13 43 17 19 28 12 28 -19z m280 -215 c0 -5
-7 -9 -15 -9 -15 0 -20 12 -9 23 8 8 24 -1 24 -14z m-4668 -64 c0 -5 -5 -11
-11 -13 -6 -2 -11 4 -11 13 0 9 5 15 11 13 6 -2 11 -8 11 -13z m4768 -89 c0
-15 -28 -42 -36 -34 -2 3 0 17 6 32 10 27 30 28 30 2z m-43 -262 c-3 -3 -12
-4 -19 -1 -8 3 -5 6 6 6 11 1 17 -2 13 -5z m-5307 -384 c0 -5 -4 -10 -10 -10
-5 0 -10 5 -10 10 0 6 5 10 10 10 6 0 10 -4 10 -10z m213 -104 c6 -14 0 -26
-14 -26 -3 0 -9 9 -12 20 -6 23 18 28 26 6z m999 -357 c43 -23 10 -49 -61 -49
-19 0 -49 -5 -66 -12 -28 -9 -39 -8 -79 11 -47 23 -55 37 -33 60 9 10 37 11
117 6 57 -4 112 -11 122 -16z m188 -259 c0 -13 -46 -24 -67 -16 -15 6 -15 8
-3 16 20 13 70 13 70 0z m222 -22 c3 -27 7 -32 32 -33 30 -1 56 -27 56 -58 0
-10 25 -42 55 -71 30 -28 55 -59 55 -67 0 -9 9 -24 20 -34 11 -10 20 -22 20
-27 0 -20 -43 -53 -68 -53 -19 0 -26 -5 -23 -15 1 -8 4 -24 5 -35 2 -12 11
-33 21 -48 9 -15 13 -27 8 -27 -5 0 -17 -23 -28 -52 -10 -29 -20 -47 -23 -40
-2 7 -12 12 -22 12 -10 0 -22 5 -25 10 -10 15 -51 12 -66 -6 -22 -27 -69 -46
-98 -39 -15 3 -39 1 -54 -4 -22 -9 -28 -7 -37 9 -5 10 -8 25 -5 33 3 7 1 26
-5 41 -9 26 -7 31 35 71 27 25 41 45 34 47 -7 2 -9 10 -5 17 6 9 11 9 19 -4
18 -24 80 -31 100 -10 19 18 22 42 8 64 -9 13 -37 12 -88 -4 -20 -6 -23 -4
-23 18 0 21 -7 28 -47 41 -27 8 -73 14 -105 13 -42 -1 -68 5 -102 22 -37 20
-48 22 -61 11 -31 -25 -15 11 17 41 26 23 39 28 61 23 25 -5 29 -2 47 40 21
49 30 55 50 31 20 -24 58 -19 62 7 2 15 16 29 41 41 20 9 37 23 37 30 0 14 43
34 77 36 17 1 22 -5 25 -31z m-342 14 c0 -26 -67 -59 -135 -68 -16 -2 -47 -6
-67 -10 -24 -4 -55 0 -84 10 -26 9 -58 16 -71 16 -14 0 -23 6 -23 15 0 26 27
28 74 4 40 -20 48 -21 77 -8 18 7 44 12 57 11 13 -1 38 4 56 12 59 27 116 35
116 18z m-500 -62 c0 -11 -4 -20 -10 -20 -5 0 -10 9 -10 20 0 11 5 20 10 20 6
0 10 -9 10 -20z m2384 -116 c3 -8 3 -27 0 -40 -6 -24 -7 -24 -25 -8 -22 20
-24 35 -7 52 16 16 25 15 32 -4z m-2054 -44 c27 -21 27 -21 -43 -39 -30 -8
-39 -7 -43 4 -8 19 4 35 20 29 7 -3 16 2 19 10 8 21 16 20 47 -4z m2040 -75
c16 -30 9 -39 -25 -31 -28 7 -32 19 -12 41 17 20 22 19 37 -10z m-2871 -64
c16 -10 22 -49 10 -57 -15 -9 -49 21 -49 43 0 24 15 29 39 14z m2849 -17 c13
-4 22 -14 22 -25 0 -24 -55 -27 -64 -3 -13 35 -5 40 42 28z m-2750 -150 c38
-11 26 -29 -68 -104 -52 -41 -68 -43 -85 -10 -30 58 -11 90 41 70 40 -16 54
-12 54 14 0 21 10 32 30 35 3 0 15 -2 28 -5z m629 -36 c16 -27 11 -38 -17 -38
-27 0 -46 22 -34 41 8 13 42 11 51 -3z m51 -36 c6 -18 -15 -14 -22 4 -4 10 -1
14 6 12 6 -2 14 -10 16 -16z m371 -58 c-10 -23 -13 -25 -16 -11 -3 10 1 25 8
33 17 21 21 11 8 -22z m575 -68 c7 -39 -1 -66 -19 -66 -19 0 -23 20 -12 62 12
47 23 48 31 4z m3394 -204 c3 -9 -2 -13 -14 -10 -9 1 -19 9 -22 16 -3 9 2 13
14 10 9 -1 19 -9 22 -16z"/>
<path d="M8660 8690 c0 -5 5 -10 10 -10 6 0 10 5 10 10 0 6 -4 10 -10 10 -5 0
-10 -4 -10 -10z"/>
<path d="M8765 8410 c3 -5 8 -10 11 -10 2 0 4 5 4 10 0 6 -5 10 -11 10 -5 0
-7 -4 -4 -10z"/>
<path d="M1 7894 c0 -11 3 -14 6 -6 3 7 2 16 -1 19 -3 4 -6 -2 -5 -13z"/>
<path d="M3620 7340 c0 -13 7 -20 20 -20 18 0 19 3 10 20 -6 11 -15 20 -20 20
-6 0 -10 -9 -10 -20z"/>
<path d="M3585 6910 c3 -5 8 -10 11 -10 2 0 4 5 4 10 0 6 -5 10 -11 10 -5 0
-7 -4 -4 -10z"/>
<path d="M4906 6773 c-4 -4 -65 -10 -136 -14 -86 -5 -140 -13 -161 -23 -18 -9
-45 -16 -60 -16 -20 0 -35 -9 -50 -29 -25 -34 -58 -46 -66 -25 -3 8 -18 14
-34 14 -25 0 -29 -4 -29 -29 0 -16 -7 -36 -15 -44 -13 -13 -13 -21 1 -61 9
-26 25 -51 35 -57 24 -12 59 -3 59 17 0 8 6 14 13 15 26 2 62 -3 67 -11 3 -4
26 -11 51 -15 46 -7 47 -7 54 24 7 32 30 51 62 51 10 0 34 11 53 24 33 22 43
23 165 21 140 -3 234 -13 250 -26 15 -11 55 -7 55 6 0 6 -13 24 -29 39 -17 16
-31 40 -33 55 -4 31 -28 44 -134 71 -83 21 -107 24 -118 13z m-493 -164 l21
-12 -22 -8 c-28 -11 -52 -2 -45 17 6 17 17 18 46 3z"/>
<path d="M3400 6671 c0 -17 32 -21 46 -6 14 13 12 15 -15 15 -17 0 -31 -4 -31
-9z"/>
<path d="M3200 6610 c0 -5 5 -10 11 -10 5 0 7 5 4 10 -3 6 -8 10 -11 10 -2 0
-4 -4 -4 -10z"/>
<path d="M4574 6409 c-10 -11 -30 -19 -46 -19 -27 0 -28 -1 -22 -40 6 -39 6
-40 -24 -40 -17 0 -43 5 -58 10 -20 8 -29 8 -35 -1 -10 -17 -1 -36 20 -42 10
-2 21 -18 24 -36 5 -22 12 -31 26 -31 15 0 22 -11 31 -49 6 -27 18 -58 25 -68
21 -26 18 -38 -10 -51 -22 -10 -28 -8 -50 16 -14 15 -28 43 -31 62 -9 55 -25
80 -51 80 -13 0 -23 -4 -23 -10 0 -5 -12 -21 -27 -36 -19 -17 -24 -28 -15 -31
6 -3 12 -14 12 -25 0 -24 37 -57 64 -58 11 0 30 -10 42 -21 13 -12 34 -27 46
-33 13 -6 29 -24 36 -39 10 -21 17 -25 29 -18 11 6 37 1 80 -15 35 -13 68 -24
73 -24 11 0 -45 56 -70 70 -13 8 -13 11 2 26 15 16 22 16 51 6 46 -16 71 -15
147 7 93 27 140 49 140 65 0 16 34 29 121 46 31 6 64 16 73 23 16 12 16 14 -2
30 -10 9 -45 22 -78 27 -32 6 -79 17 -104 25 -126 39 -155 45 -234 45 -98 0
-122 6 -105 26 7 9 25 11 58 7 36 -4 50 -1 60 11 17 20 2 41 -36 50 -24 7 -24
8 -9 25 23 25 5 37 -61 43 -42 4 -56 1 -69 -13z m362 -264 c12 -8 21 -23 20
-33 -2 -28 -61 -74 -89 -70 -14 1 -32 -3 -41 -11 -21 -17 -139 -25 -166 -11
-20 11 -28 40 -10 40 5 0 31 -5 59 -11 42 -9 54 -8 75 6 14 9 28 27 32 38 14
47 34 67 67 67 18 0 42 -7 53 -15z"/>
<path d="M4260 6110 c0 -5 -11 -12 -24 -16 -20 -5 -23 -10 -17 -32 4 -15 10
-26 14 -24 4 1 12 2 17 2 6 0 10 6 10 14 0 8 9 18 20 21 11 3 20 15 20 26 0
12 -7 19 -20 19 -11 0 -20 -4 -20 -10z"/>
<path d="M6056 5911 c-4 -6 -4 -22 0 -36 5 -19 12 -25 28 -23 31 4 30 62 -1
66 -11 2 -24 -1 -27 -7z"/>
<path d="M6115 5800 c-9 -14 13 -50 30 -50 10 0 15 10 15 30 0 23 -5 30 -19
30 -11 0 -23 -4 -26 -10z"/>
<path d="M6125 5685 c-28 -27 -33 -65 -9 -65 8 0 29 14 46 30 25 25 28 33 18
45 -17 21 -27 19 -55 -10z"/>
<path d="M6047 5583 c-13 -12 -7 -23 13 -23 11 0 20 7 20 15 0 15 -21 21 -33
8z"/>
<path d="M6005 5474 c-39 -19 -55 -41 -55 -74 0 -14 -6 -32 -12 -39 -11 -11
-9 -12 12 -6 46 14 130 18 130 5 0 -6 4 -9 9 -6 13 9 -7 77 -32 108 -22 26
-24 27 -52 12z"/>
<path d="M4750 5361 c0 -14 18 -23 31 -15 8 4 7 9 -2 15 -18 11 -29 11 -29 0z"/>
<path d="M4790 5300 c0 -11 7 -23 15 -27 21 -8 28 1 20 26 -8 27 -35 27 -35 1z"/>
<path d="M4840 5220 c0 -10 9 -24 20 -30 11 -6 20 -20 20 -30 0 -15 7 -20 26
-20 22 0 24 3 19 23 -4 12 -16 30 -28 39 -12 10 -27 22 -34 28 -18 15 -23 12
-23 -10z"/>
<path d="M5914 5185 c-3 -8 -3 -19 0 -24 10 -16 36 -1 36 20 0 22 -28 26 -36
4z"/>
<path d="M8964 5176 c-9 -24 0 -51 19 -54 14 -3 17 4 17 32 0 26 -4 36 -15 36
-9 0 -18 -6 -21 -14z"/>
<path d="M5972 5097 c-8 -10 -6 -16 9 -25 10 -7 19 -19 19 -27 0 -24 -29 -17
-42 10 -6 14 -17 25 -24 25 -28 0 -47 -74 -21 -83 6 -2 9 -8 5 -12 -4 -4 -14
0 -23 9 -22 21 -35 12 -35 -25 0 -17 -11 -47 -25 -67 -14 -20 -25 -44 -25 -53
0 -18 26 -45 32 -32 4 10 83 53 96 53 5 0 12 -20 15 -45 2 -26 7 -48 10 -52 3
-3 20 2 38 11 18 9 38 16 44 16 22 0 47 79 40 122 -4 22 -7 55 -7 73 0 20 -5
33 -11 32 -6 -1 -13 7 -15 18 -12 53 -55 82 -80 52z"/>
<path d="M8877 5063 c-11 -10 -8 -49 5 -80 l11 -28 8 40 c11 56 -2 91 -24 68z"/>
<path d="M6182 4108 c-17 -17 -15 -49 4 -76 19 -27 25 -27 52 -3 27 23 27 32
1 65 -22 28 -39 32 -57 14z"/>
<path d="M2289 4000 c-11 -7 -10 -10 5 -16 10 -4 28 -17 41 -30 42 -42 105
-44 105 -4 0 14 -10 25 -32 34 -46 18 -102 26 -119 16z"/>
<path d="M8774 3935 c-3 -8 -3 -19 1 -25 11 -18 25 -11 25 15 0 27 -17 34 -26
10z"/>
<path d="M6272 3918 c6 -18 28 -21 28 -4 0 9 -7 16 -16 16 -9 0 -14 -5 -12
-12z"/>
<path d="M2460 3869 c0 -6 9 -18 19 -27 53 -46 182 -208 191 -241 5 -20 21
-52 35 -71 14 -19 25 -44 25 -57 0 -47 84 -59 125 -18 43 42 29 80 -30 87 -28
3 -30 6 -30 45 0 39 -5 48 -65 107 -36 35 -83 83 -105 105 -22 23 -43 41 -48
41 -4 0 -27 9 -49 20 -47 22 -68 25 -68 9z"/>
<path d="M6179 3649 c-49 -55 -61 -78 -39 -72 26 7 103 69 111 90 24 64 -5 57
-72 -18z"/>
<path d="M2545 3570 c-3 -5 -1 -10 4 -10 6 0 11 5 11 10 0 6 -2 10 -4 10 -3 0
-8 -4 -11 -10z"/>
<path d="M1297 3553 c7 -21 73 -93 85 -93 16 0 7 33 -14 55 -13 13 -29 30 -36
39 -18 22 -43 21 -35 -1z"/>
<path d="M1970 3525 c0 -8 7 -15 16 -15 14 0 14 3 4 15 -7 8 -14 15 -16 15 -2
0 -4 -7 -4 -15z"/>
<path d="M2590 3481 c0 -24 -5 -30 -30 -34 -21 -5 -31 -14 -36 -32 -3 -14 -5
-28 -3 -30 2 -2 22 4 44 12 22 9 54 16 70 17 35 2 55 12 55 29 0 22 -50 67
-75 67 -21 0 -25 -5 -25 -29z"/>
<path d="M2230 3421 c0 -11 6 -26 13 -33 26 -29 47 -81 47 -119 0 -32 4 -39
19 -39 17 0 91 71 91 88 0 14 -62 62 -81 62 -10 0 -28 14 -41 30 -25 34 -48
39 -48 11z"/>
<path d="M1418 3388 c-5 -15 20 -87 38 -108 7 -8 15 -27 19 -42 4 -15 13 -33
21 -39 17 -14 54 -91 54 -111 0 -8 6 -23 14 -33 8 -11 15 -47 17 -80 3 -48 1
-60 -11 -60 -10 0 -14 8 -12 24 1 16 -9 34 -34 57 -19 19 -40 34 -45 34 -5 0
-9 11 -9 25 0 14 -4 25 -10 25 -5 0 -10 9 -10 21 0 13 -11 25 -32 34 -18 7
-44 23 -57 34 -32 28 -81 28 -81 1 0 -11 -10 -26 -23 -34 -19 -13 -28 -13 -59
-2 -55 18 -55 23 -1 31 71 9 80 17 59 49 -23 37 -66 35 -94 -4 -12 -16 -22
-32 -22 -35 0 -22 -33 -31 -110 -33 l-85 -2 -43 50 c-34 40 -49 50 -74 50 -27
0 -29 -2 -17 -16 12 -14 9 -20 -16 -39 -16 -13 -50 -27 -77 -30 -26 -4 -50
-11 -53 -15 -9 -14 -79 1 -95 20 -21 23 -150 39 -150 17 0 -20 -37 -35 -104
-41 -60 -5 -69 -2 -138 42 -20 13 -42 21 -47 17 -6 -3 -14 -24 -17 -46 -8 -49
-39 -69 -79 -51 -14 7 -28 12 -30 12 -3 0 -5 -700 -5 -1555 l0 -1555 249 0
c138 0 252 4 255 8 3 5 8 54 12 110 4 56 11 102 15 102 5 0 9 -8 9 -18 0 -10
5 -23 11 -29 8 -8 7 -17 -2 -32 -11 -16 -11 -23 -1 -33 14 -14 16 -64 2 -73
-6 -3 -10 -13 -10 -21 0 -10 12 -14 44 -14 l44 0 -6 68 c-4 50 -11 74 -28 95
-20 24 -22 31 -11 48 10 18 8 23 -20 47 -30 25 -32 32 -32 87 -1 123 32 328
69 430 12 33 25 83 30 110 7 47 17 73 61 171 11 23 19 45 19 50 0 5 14 36 30
69 17 32 32 75 35 95 11 67 30 115 55 137 25 21 25 21 6 53 -18 31 -18 32 3
51 25 23 30 74 6 65 -36 -13 -41 54 -10 134 7 19 19 80 26 135 7 55 18 114 26
132 7 18 13 45 13 61 0 16 9 40 19 54 11 13 25 53 32 89 7 35 18 71 25 79 6 8
24 40 39 70 45 88 133 189 333 379 23 23 48 41 54 41 5 0 43 20 82 45 39 24
92 51 116 60 24 9 83 36 130 62 47 25 105 50 130 55 25 5 58 12 74 15 53 11
96 42 94 69 -2 17 -8 24 -24 24 -37 0 -45 44 -14 80 24 27 26 52 5 44 -8 -4
-15 -9 -15 -14 0 -4 -9 -18 -21 -31 -16 -18 -19 -31 -14 -62 7 -38 6 -38 -21
-35 -26 3 -29 6 -26 35 3 29 -1 35 -33 50 -31 15 -37 15 -45 3 -10 -15 -15
-58 -11 -94 2 -27 -27 -56 -56 -56 -21 0 -24 4 -21 33 3 31 2 32 -29 29 -18
-1 -33 2 -33 8 0 5 9 10 20 10 11 0 20 4 20 8 0 11 -30 37 -52 45 -10 3 -20
19 -24 34 -4 15 -25 43 -46 62 -36 31 -39 37 -33 68 5 31 3 35 -24 44 -16 6
-37 21 -46 35 -16 26 -60 33 -67 12z m-632 -256 c31 -21 21 -82 -14 -82 -25 0
-56 58 -41 76 12 15 38 18 55 6z m-270 -13 c13 -21 -14 -33 -43 -20 -22 10
-24 14 -12 22 19 12 46 11 55 -2z m-296 -74 c0 -16 -45 -21 -54 -6 -8 12 4 21
31 21 14 0 23 -6 23 -15z m180 2 c0 -9 -17 -13 -57 -13 l-58 0 40 12 c53 16
75 17 75 1z m970 -2 c0 -9 -9 -15 -22 -15 -21 0 -21 0 -2 15 24 18 24 18 24 0z
m-1097 -2 c-7 -2 -19 -2 -25 0 -7 3 -2 5 12 5 14 0 19 -2 13 -5z m831 -2 c3
-4 -2 -15 -12 -24 -14 -13 -20 -13 -36 -2 -10 8 -15 18 -11 24 7 13 52 15 59
2z m-485 -35 c53 -15 40 -29 -18 -20 -25 4 -41 12 -41 20 0 17 4 17 59 0z"/>
<path d="M23 3382 c-13 -2 -23 -8 -23 -13 0 -8 47 -3 58 6 8 6 -15 11 -35 7z"/>
<path d="M2110 3380 c0 -5 5 -10 11 -10 5 0 7 5 4 10 -3 6 -8 10 -11 10 -2 0
-4 -4 -4 -10z"/>
<path d="M2453 3373 c-7 -2 -13 -9 -13 -14 0 -15 36 -10 50 6 10 12 9 15 -6
14 -11 0 -25 -3 -31 -6z"/>
<path d="M60 3352 c0 -14 11 -21 26 -15 21 8 17 23 -6 23 -11 0 -20 -4 -20 -8z"/>
<path d="M0 3320 c0 -13 5 -20 13 -17 6 2 12 10 12 17 0 7 -6 15 -12 18 -8 2
-13 -5 -13 -18z"/>
<path d="M5563 3328 c-13 -6 -23 -20 -23 -32 0 -26 -8 -37 -43 -59 -16 -10
-33 -31 -39 -47 -9 -28 -11 -29 -34 -14 -24 16 -24 16 -24 -17 0 -25 8 -42 29
-62 39 -36 45 -60 27 -96 -19 -35 -21 -67 -5 -76 6 -4 8 -22 4 -46 -6 -34 -4
-39 12 -39 26 0 43 -19 43 -47 0 -13 6 -23 13 -24 70 -6 90 -10 109 -23 12 -9
36 -16 52 -16 17 0 37 -9 51 -24 12 -13 28 -25 36 -28 11 -4 12 -9 2 -27 -20
-33 -15 -48 17 -54 17 -4 30 -13 30 -21 0 -7 7 -16 15 -20 9 -3 15 -18 15 -36
0 -23 4 -30 20 -30 14 0 22 -11 30 -41 7 -24 28 -57 53 -82 l42 -42 3 39 c2
22 -1 49 -6 60 -23 50 -32 78 -32 99 0 13 -6 31 -14 42 -7 11 -17 31 -21 45
-11 37 -150 181 -222 232 -24 16 -43 33 -43 38 0 6 -11 10 -25 10 -40 0 -91
54 -111 118 -17 54 -17 56 4 93 12 21 22 49 22 62 0 14 11 49 24 78 45 102 43
113 -11 87z"/>
<path d="M290 3320 c-11 -7 -12 -12 -3 -21 13 -13 64 0 71 19 4 14 -46 16 -68
2z"/>
<path d="M2076 3295 c-10 -26 -7 -32 13 -38 29 -7 48 9 35 30 -15 24 -40 28
-48 8z"/>
<path d="M131 3286 c-16 -19 -7 -65 15 -73 21 -8 66 36 62 62 -4 26 -59 33
-77 11z"/>
<path d="M1280 3281 c0 -31 72 -46 83 -16 7 18 -6 27 -26 19 -9 -3 -25 -1 -36
6 -18 9 -21 8 -21 -9z"/>
<path d="M2154 3272 c-3 -16 -18 -36 -36 -47 -54 -36 -61 -75 -12 -75 37 0 30
-32 -11 -54 -44 -24 -48 -56 -7 -56 15 0 41 9 59 20 36 22 96 98 90 114 -2 6
-21 10 -41 8 -36 -3 -36 -3 -36 36 0 32 4 41 22 45 18 5 19 8 8 21 -19 23 -30
19 -36 -12z"/>
<path d="M5705 3260 c-63 -70 -80 -156 -35 -180 28 -15 53 -13 47 4 -3 8 -9
30 -12 49 -6 32 -3 40 35 81 23 25 39 50 35 56 -10 17 -51 11 -70 -10z"/>
<path d="M1009 3260 c-17 -10 -15 -60 1 -60 5 0 15 -6 23 -14 28 -29 73 25 49
60 -10 16 -55 24 -73 14z"/>
<path d="M350 3231 c0 -14 38 -33 50 -26 20 13 9 31 -20 33 -16 1 -30 -2 -30
-7z"/>
<path d="M1789 3228 c-4 -41 10 -62 34 -52 22 8 21 27 -1 47 -22 20 -32 21
-33 5z"/>
<path d="M8361 3226 c-20 -24 -5 -63 34 -89 20 -12 38 -32 41 -44 10 -37 21
-17 15 25 -4 23 -20 55 -42 81 -31 38 -37 41 -48 27z"/>
<path d="M0 3193 c0 -14 7 -34 16 -44 15 -16 19 -17 44 -4 15 8 30 21 33 29 8
21 -25 46 -61 46 -28 0 -32 -3 -32 -27z"/>
<path d="M8486 3042 c-3 -5 1 -15 9 -22 9 -8 15 -30 15 -56 0 -34 4 -44 20
-49 24 -7 50 10 50 32 0 8 -11 24 -24 34 -14 11 -26 29 -28 42 -3 22 -32 35
-42 19z"/>
<path d="M5868 2939 c-10 -5 -18 -16 -18 -23 0 -23 44 -27 83 -7 l37 19 -28 4
c-15 3 -34 8 -42 11 -8 4 -23 2 -32 -4z"/>
<path d="M5668 2913 c7 -3 16 -2 19 1 4 3 -2 6 -13 5 -11 0 -14 -3 -6 -6z"/>
<path d="M8480 2885 c0 -8 5 -15 10 -15 6 0 10 7 10 15 0 8 -4 15 -10 15 -5 0
-10 -7 -10 -15z"/>
<path d="M8560 2850 c-14 -26 8 -37 40 -20 17 9 19 14 9 26 -16 20 -36 17 -49
-6z"/>
<path d="M8525 2730 c-3 -5 -2 -10 4 -10 5 0 13 5 16 10 3 6 2 10 -4 10 -5 0
-13 -4 -16 -10z"/>
<path d="M8640 2710 c0 -5 7 -10 16 -10 8 0 12 5 9 10 -3 6 -10 10 -16 10 -5
0 -9 -4 -9 -10z"/>
<path d="M8653 2633 c-18 -7 -16 -27 5 -46 27 -24 34 -21 30 15 -3 32 -13 40
-35 31z"/>
<path d="M6146 2454 c-12 -31 -5 -48 40 -101 37 -43 52 -53 72 -51 14 2 30 11
36 20 8 14 2 24 -37 58 -26 23 -50 53 -53 66 -7 28 -48 34 -58 8z"/>
<path d="M8701 2456 c-7 -9 -8 -17 -2 -20 13 -9 43 4 38 17 -5 17 -23 19 -36
3z"/>
<path d="M6040 2231 c0 -14 28 -33 39 -27 16 10 1 36 -20 36 -10 0 -19 -4 -19
-9z"/>
<path d="M6110 2139 c0 -12 23 -41 57 -72 123 -111 201 -196 207 -224 4 -17
24 -47 45 -67 31 -31 39 -34 44 -21 6 13 -37 110 -54 125 -4 3 -18 28 -33 57
-14 28 -43 64 -63 80 -51 38 -93 74 -112 96 -17 20 -64 47 -81 47 -5 0 -10 -9
-10 -21z"/>
<path d="M6050 2080 c0 -5 5 -10 10 -10 6 0 10 5 10 10 0 6 -4 10 -10 10 -5 0
-10 -4 -10 -10z"/>
<path d="M3253 2000 c0 -25 2 -35 4 -22 2 12 2 32 0 45 -2 12 -4 2 -4 -23z"/>
<path d="M6545 2000 c-17 -27 67 -100 115 -100 32 0 66 23 56 38 -4 7 -25 15
-46 18 -22 4 -54 17 -72 30 -35 26 -44 29 -53 14z"/>
<path d="M3242 1859 c-8 -30 -16 -115 -19 -189 -5 -110 -9 -140 -24 -162 -13
-18 -19 -43 -19 -83 0 -49 -4 -62 -28 -90 -23 -26 -30 -46 -36 -99 -4 -37 -4
-89 0 -116 5 -36 3 -55 -7 -66 -8 -10 -14 -43 -15 -83 -1 -110 -20 -230 -39
-251 -14 -15 -17 -36 -15 -122 3 -133 3 -134 -16 -152 -8 -9 -17 -35 -19 -58
-1 -24 -11 -61 -20 -83 -24 -55 -35 -145 -24 -194 7 -32 6 -48 -6 -71 -20 -40
-20 -40 23 -40 l38 0 13 63 c7 34 21 91 31 127 28 102 30 114 105 595 13 88
29 207 35 265 6 58 18 155 27 215 8 61 16 147 18 192 7 165 16 284 24 306 5
14 4 49 -3 86 l-11 63 -13 -53z"/>
<path d="M870 1703 c0 -7 -8 -16 -17 -22 -17 -9 -17 -11 1 -24 18 -13 23 -11
53 19 18 18 33 36 33 39 0 3 -16 4 -35 2 -19 -1 -35 -7 -35 -14z"/>
<path d="M6450 1660 c0 -12 18 -38 40 -60 50 -49 79 -65 92 -52 6 6 -10 23
-46 47 -42 28 -56 43 -56 61 0 15 -6 24 -15 24 -8 0 -15 -9 -15 -20z"/>
<path d="M8963 1213 c-23 -9 -14 -33 12 -33 18 0 25 5 25 20 0 19 -12 24 -37
13z"/>
<path d="M8705 1180 c-55 -3 -129 -14 -165 -23 -107 -27 -223 -47 -270 -47
-25 0 -63 -5 -85 -10 -180 -44 -418 -56 -625 -33 -74 8 -145 19 -157 25 -11 6
-25 8 -31 4 -5 -3 -36 4 -68 15 -45 16 -63 18 -76 10 -24 -15 -59 -14 -83 3
-11 7 -42 16 -69 20 -27 4 -61 13 -75 19 -43 18 -72 17 -93 -2 -11 -11 -40
-21 -70 -23 -59 -6 -68 -17 -68 -80 0 -55 10 -65 45 -42 21 14 39 15 98 9 83
-8 96 -15 89 -50 -5 -31 11 -32 30 -3 l15 22 124 -23 c68 -13 153 -26 189 -30
36 -4 87 -13 113 -21 37 -10 54 -10 73 -1 31 14 193 15 230 1 15 -6 35 -8 43
-4 9 4 19 8 23 8 3 1 10 4 14 9 4 4 21 7 37 7 l30 0 -23 -20 c-13 -11 -32 -20
-42 -20 -13 0 -18 -6 -16 -17 3 -16 15 -18 101 -17 64 1 103 6 113 15 9 7 24
14 33 14 9 1 26 2 39 3 27 2 41 30 21 43 -19 12 -61 0 -81 -24 -18 -20 -94
-35 -122 -24 -27 10 -7 40 22 34 30 -6 54 1 47 13 -3 5 -1 12 5 15 27 16 193
53 267 59 45 3 100 13 123 21 23 8 47 12 52 9 6 -4 43 10 82 30 68 35 121 49
243 63 57 6 88 28 62 44 -8 5 -21 8 -29 7 -8 -1 -60 -4 -115 -8z"/>
<path d="M2555 1045 c3 -22 13 -46 20 -54 12 -12 15 -10 21 13 5 22 1 33 -21
54 l-27 27 7 -40z"/>
<path d="M6628 1019 c-9 -5 -19 -26 -23 -46 -4 -21 -15 -46 -26 -56 -10 -10
-19 -29 -19 -42 0 -29 1 -29 35 -13 18 8 25 19 25 40 0 15 3 28 8 28 9 0 42
58 42 75 0 17 -22 25 -42 14z"/>
<path d="M6495 880 c3 -5 8 -10 11 -10 2 0 4 5 4 10 0 6 -5 10 -11 10 -5 0 -7
-4 -4 -10z"/>
<path d="M6655 868 c-15 -22 -14 -23 7 -26 20 -4 48 20 48 40 0 17 -40 7 -55
-14z"/>
<path d="M7665 870 c-3 -5 -3 -15 0 -20 7 -12 45 5 45 20 0 13 -37 13 -45 0z"/>
<path d="M6552 820 c-17 -28 -9 -38 28 -32 49 7 52 32 5 46 -14 4 -24 -1 -33
-14z"/>
<path d="M6502 789 c1 -12 9 -24 16 -27 9 -3 13 3 10 19 -1 12 -9 24 -16 27
-9 3 -13 -3 -10 -19z"/>
<path d="M2370 751 c0 -5 9 -19 19 -32 18 -22 20 -22 26 -6 4 9 2 24 -5 32
-14 16 -40 20 -40 6z"/>
<path d="M6376 743 c-14 -35 44 -49 82 -20 20 15 -5 37 -43 37 -22 0 -35 -6
-39 -17z"/>
<path d="M6265 738 c-11 -6 -22 -14 -25 -18 -13 -16 -95 -40 -141 -40 -37 0
-60 -7 -87 -25 -23 -16 -51 -25 -75 -25 -42 0 -99 -28 -94 -45 5 -15 117 -12
150 3 16 7 35 11 43 8 9 -3 42 5 74 19 33 14 71 25 84 25 49 0 124 21 130 37
16 40 -24 80 -59 61z"/>
<path d="M2672 630 c1 -13 9 -25 16 -28 17 -5 15 23 -4 39 -14 11 -15 10 -12
-11z"/>
<path d="M900 605 c-10 -12 -10 -15 3 -15 19 0 31 16 18 24 -5 3 -14 -1 -21
-9z"/>
<path d="M2477 526 c-3 -8 2 -21 12 -30 23 -21 28 -20 34 3 8 33 -34 58 -46
27z"/>
<path d="M2522 414 c3 -33 14 -82 25 -111 12 -28 18 -54 15 -57 -3 -3 3 -15
13 -26 12 -13 16 -29 12 -47 -5 -30 19 -83 38 -83 14 0 35 58 35 96 0 37 -28
110 -59 151 -13 18 -31 54 -40 79 -24 72 -44 70 -39 -2z"/>
<path d="M5867 243 c-13 -12 -7 -23 13 -23 11 0 20 7 20 15 0 15 -21 21 -33 8z"/>
<path d="M3403 199 c-17 -12 -46 -19 -74 -19 -53 0 -62 -6 -48 -32 15 -28 -3
-45 -56 -52 -25 -4 -47 -11 -50 -17 -4 -5 -24 -18 -46 -29 -21 -11 -39 -27
-39 -35 0 -13 43 -15 306 -15 297 0 306 1 311 20 3 11 9 20 14 20 19 0 -4 28
-36 43 -18 9 -36 25 -40 37 -8 25 -109 77 -172 89 -33 7 -47 4 -70 -10z"/>
<path d="M5773 185 c-3 -9 -3 -18 0 -21 7 -8 47 15 47 26 0 16 -40 11 -47 -5z"/>
<path d="M5721 153 c-13 -3 -41 -16 -62 -29 -21 -13 -52 -24 -68 -24 -18 0
-38 -9 -51 -22 -12 -13 -35 -30 -52 -38 -18 -8 -33 -21 -36 -27 -6 -19 104
-18 111 0 6 16 99 67 123 67 17 0 74 53 74 69 0 6 -3 10 -7 10 -5 -1 -19 -4
-32 -6z"/>
<path d="M2634 45 c3 -9 6 -23 6 -31 0 -8 7 -14 15 -14 22 0 18 33 -6 49 -19
11 -21 11 -15 -4z"/>
</g>
</svg>
